<?xml version="1.0" encoding="utf-8"?>
<svg width="478" height="478" viewBox="0 0 478 478" fill="none" xmlns="http://www.w3.org/2000/svg">
  <g>
    <rect width="478" height="478" />
    <g id="Group">
      <g fill="#FFFFFF">
        <path id="Rectangle" d="M327 0C410.406 0 478 67.5937 478 151L478 327C478 410.406 410.406 478 327 478L151 478C67.5937 478 0 410.406 0 327L0 151C0 67.5937 67.5937 0 151 0L327 0Z" />
        <path d="M478 151C478 67.5937 410.406 0 327 0L151 0C67.5937 0 0 67.5937 0 151L0 327C0 410.406 67.5937 478 151 478L327 478C410.406 478 478 410.406 478 327L478 151Z" fill="#FFFFFF" fill-opacity="0" fill-rule="evenodd" />
      </g>
      <g fill="#F7D254" fill-rule="evenodd" fill-opacity="0" transform="translate(50.708 83.437)">
        <path id="Oval" d="M8.27434 101.753C39.9851 14.6284 153.621 -23.9963 262.088 15.4822C370.554 54.9608 432.777 157.593 401.066 244.717C369.355 331.842 255.719 370.467 147.253 330.988C38.7864 291.509 -23.4364 188.877 8.27434 101.753Z" />
        <path d="M262.088 15.4822C153.621 -23.9963 39.9851 14.6284 8.27434 101.753C-23.4364 188.877 38.7864 291.509 147.253 330.988C255.719 370.467 369.355 331.842 401.066 244.717C432.777 157.593 370.554 54.9608 262.088 15.4822ZM14.2393 167.017Q9.90791 135.274 20.4903 106.199Q31.0728 77.1242 54.7949 55.5917Q78.0077 34.5215 110.581 23.4498Q143.539 12.2476 180.849 13.0521Q219.703 13.8899 257.641 27.6982Q295.579 41.5066 325.882 65.8398Q354.98 89.206 373.027 118.972Q390.863 148.391 395.101 179.453Q399.432 211.196 388.85 240.271Q378.268 269.346 354.545 290.879Q331.333 311.949 298.759 323.02Q265.802 334.223 228.491 333.418Q189.637 332.58 151.699 318.772Q113.761 304.964 83.4585 280.63Q54.36 257.264 36.3137 227.498Q18.4777 198.079 14.2393 167.017Z" fill="#F7D254" fill-rule="evenodd" />
      </g>
      <g fill="#FFFFFF" fill-opacity="0">
        <path id="Rectangle" d="M327 0C410.406 0 478 67.5937 478 151L478 327C478 410.406 410.406 478 327 478L151 478C67.5937 478 0 410.406 0 327L0 151C0 67.5937 67.5937 0 151 0L327 0Z" />
        <path d="M478 151C478 67.5937 410.406 0 327 0L151 0C67.5937 0 0 67.5937 0 151L0 327C0 410.406 67.5937 478 151 478L327 478C410.406 478 478 410.406 478 327L478 151ZM151 33L327 33Q351.034 33 372.927 42.2586Q394.097 51.2114 410.443 67.5571Q426.789 83.9029 435.741 105.073Q445 126.966 445 151L445 327Q445 351.034 435.741 372.927Q426.789 394.097 410.443 410.443Q394.097 426.789 372.927 435.741Q351.034 445 327 445L151 445Q126.966 445 105.073 435.741Q83.9029 426.789 67.5571 410.443Q51.2113 394.097 42.2585 372.927Q33 351.034 33 327L33 151Q33 126.966 42.2586 105.073Q51.2114 83.9029 67.5571 67.5572Q83.9029 51.2114 105.073 42.2585Q126.966 33 151 33Z" fill="#000050" fill-rule="evenodd" />
      </g>
      <path d="M139.935 127.395Q137.655 105.45 124.118 95.6175Q110.58 85.785 89.49 85.785Q80.9402 85.785 72.675 87.495Q64.41 89.205 57.9975 93.195Q51.585 97.185 47.7375 103.882Q43.89 110.58 43.89 120.555Q43.89 129.96 49.4475 135.803Q55.005 141.645 64.2675 145.35Q73.53 149.055 85.215 151.478Q96.9 153.9 109.013 156.75Q121.125 159.6 132.81 163.448Q144.495 167.295 153.757 173.85Q163.02 180.405 168.578 190.38Q174.135 200.355 174.135 215.46Q174.135 231.705 166.868 243.247Q159.6 254.79 148.2 262.057C140.6 266.902 132.098 270.418 122.693 272.603Q108.585 275.88 94.62 275.88Q77.5201 275.88 62.2725 271.605Q47.025 267.33 35.4825 258.638Q23.94 249.945 17.2425 236.408Q10.545 222.87 10.545 204.345L36.195 204.345Q36.195 217.17 41.1825 226.432Q46.17 235.695 54.2925 241.68Q62.415 247.665 73.245 250.515Q84.075 253.365 95.475 253.365Q104.595 253.365 113.858 251.655Q123.12 249.945 130.53 245.813Q137.94 241.68 142.5 234.555Q147.06 227.43 147.06 216.315Q147.06 205.77 141.503 199.215Q135.945 192.66 126.683 188.527Q117.42 184.395 105.735 181.83Q94.0501 179.265 81.9375 176.557Q69.825 173.85 58.14 170.288Q46.455 166.725 37.1925 160.883Q27.93 155.04 22.3725 145.777Q16.815 136.515 16.815 122.55Q16.815 107.16 23.085 95.9025Q29.355 84.6453 39.7575 77.3775Q50.16 70.1106 63.4125 66.5475Q76.6649 62.9886 90.63 62.985Q106.305 62.9814 119.7 66.69Q133.095 70.3945 143.212 78.375Q153.33 86.355 159.173 98.4675Q165.015 110.58 165.585 127.395L139.935 127.395ZM223.17 97.47L198.945 97.47L198.945 67.83L223.17 67.83L223.17 97.47ZM198.945 123.975L223.17 123.975L223.17 271.32L198.945 271.32L198.945 123.975Z" fill="#000050" transform="translate(110 70)" />
      <path id="Oval" d="M0 23.5C0 10.5213 10.5213 0 23.5 0C36.4787 0 47 10.5213 47 23.5C47 36.4787 36.4787 47 23.5 47C10.5213 47 0 36.4787 0 23.5Z" fill="#F7D254" fill-rule="evenodd" transform="translate(295 130)" />
    </g>
  </g>
</svg>